<?xml version="1.0" encoding="iso-8859-1"?>
<!-- Uploaded to: SVG Repo, www.svgrepo.com, Generator: SVG Repo Mixer Tools -->
<svg version="1.1" id="Layer_1" xmlns="http://www.w3.org/2000/svg" xmlns:xlink="http://www.w3.org/1999/xlink" 
	 width="24px" height="24px" viewBox="0 0 491.52 491.52" xml:space="preserve">
<path style="fill:#64798A;" d="M400.903,0H90.615c-7.296,0-13.209,5.914-13.209,13.209v465.102c0,7.294,5.913,13.209,13.209,13.209
	h310.288c7.296,0,13.21-5.914,13.21-13.209V13.209C414.114,5.914,408.199,0,400.903,0z"/>
<path style="fill:#3A556A;" d="M141.749,283.578h208.024c12.942,0,23.467-10.525,23.467-23.467V0.001h-8.936v260.11
	c0,8.012-6.519,14.53-14.531,14.53H141.749c-8.012,0-14.531-6.518-14.531-14.53V0.001h-8.936v260.11
	C118.281,273.052,128.806,283.578,141.749,283.578z"/>
<circle style="fill:#EBF0F3;" cx="241.971" cy="341.146" r="21.852"/>
<circle style="fill:#44C4A1;" cx="241.971" cy="380.16" r="7.752"/>
<rect x="140.749" y="28.16" style="fill:#2F4859;" width="210.074" height="71.439"/>
<rect x="145.193" y="32.645" style="fill:#3A556A;" width="201.114" height="62.505"/>
<rect x="140.718" y="135.071" style="fill:#2F4859;" width="210.074" height="71.434"/>
<rect x="145.193" y="139.571" style="fill:#3A556A;" width="201.114" height="62.505"/>
<path style="fill:#D5D6DB;" d="M335.55,110.819h-32.736c-1.093,0-1.978,0.886-1.978,1.981v10.529c0,1.094,0.886,1.981,1.978,1.981
	h32.736c1.093,0,1.979-0.888,1.979-1.981V112.8C337.529,111.706,336.643,110.819,335.55,110.819z"/>
<path style="fill:#EBF0F3;" d="M335.55,106.857h-32.736c-1.093,0-1.978,0.888-1.978,1.981v10.529c0,1.094,0.886,1.981,1.978,1.981
	h32.736c1.093,0,1.979-0.887,1.979-1.981v-10.529C337.529,107.745,336.643,106.857,335.55,106.857z"/>
<path style="fill:#D5D6DB;" d="M335.55,218.06h-32.736c-1.093,0-1.978,0.886-1.978,1.981v10.529c0,1.094,0.886,1.981,1.978,1.981
	h32.736c1.093,0,1.979-0.887,1.979-1.981v-10.529C337.529,218.946,336.643,218.06,335.55,218.06z"/>
<path style="fill:#EBF0F3;" d="M335.55,214.098h-32.736c-1.093,0-1.978,0.887-1.978,1.981v10.529c0,1.095,0.886,1.981,1.978,1.981
	h32.736c1.093,0,1.979-0.886,1.979-1.981v-10.529C337.529,214.985,336.643,214.098,335.55,214.098z"/>
</svg>