<?xml version="1.0" encoding="iso-8859-1"?>
<!-- Uploaded to: SVG Repo, www.svgrepo.com, Generator: SVG Repo Mixer Tools -->
<svg height="24px" width="24px" version="1.1" id="Layer_1" xmlns="http://www.w3.org/2000/svg" xmlns:xlink="http://www.w3.org/1999/xlink" 
	 viewBox="0 0 512 512" xml:space="preserve">
<path style="fill:#FFC033;" d="M491.09,328.459c-10.239-17.809-28.826-27.937-51.199-27.937c-28.737,0-47.726-21.359-48.085-44.522
	c-0.111-9.906,3.228-20.035,10.685-28.828c8.459-10.017,20.815-15.694,33.837-15.694c24.598,0,44.522-10.351,54.872-28.271
	c9.796-17.03,9.685-38.4-0.333-55.652C445.122,48.863,360.307,0,269.373,0C146.938,0,41.421,86.15,18.381,204.911
	c-3.338,17.03-5.009,34.059-4.896,51.089v0.668c0.223,58.991,20.48,116.313,58.435,162.282C120.671,478.052,192.685,512,269.374,512
	c91.157,0,176.085-49.085,221.717-128C500.997,366.859,500.997,345.6,491.09,328.459z M292.745,104.181
	c13.803-23.93,44.3-32.278,68.452-18.365c23.93,13.803,32.167,44.412,18.365,68.452c-13.803,23.819-44.412,32.167-68.452,18.254
	C287.18,158.72,278.945,128.223,292.745,104.181z"/>
<path style="fill:#F9A926;" d="M71.919,418.95C120.67,478.052,192.684,512,269.373,512c91.157,0,176.085-49.085,221.717-128
	c9.907-17.141,9.907-38.4,0-55.541c-10.239-17.809-28.826-27.937-51.199-27.937c-28.737,0-47.726-21.359-48.085-44.522H13.483v0.668
	C13.707,315.659,33.963,372.981,71.919,418.95z"/>
<path style="fill:#88CC2A;" d="M124.677,306.087c-27.619,0-50.087-22.468-50.087-50.087s22.468-50.087,50.087-50.087
	s50.087,22.468,50.087,50.087S152.296,306.087,124.677,306.087z"/>
<path style="fill:#736056;" d="M171.981,420.609c-23.923-13.802-32.21-44.397-18.326-68.424
	c13.695-23.726,44.21-32.294,68.413-18.321c23.922,13.801,32.21,44.392,18.326,68.419
	C226.622,426.154,196.056,434.511,171.981,420.609z"/>
<path style="fill:#37AFCC;" d="M323.198,431.18c-26.712-7.156-42.599-34.587-35.424-61.342c7.175-26.741,34.59-42.578,61.336-35.413
	c12.924,3.456,23.728,11.745,30.413,23.326l0,0c6.696,11.587,8.478,25.087,5.011,38.016
	C377.349,422.55,349.888,438.339,323.198,431.18z"/>
<path style="fill:#E6563A;" d="M153.655,159.81c-13.855-23.966-5.651-54.579,18.326-68.424
	c24.013-13.841,54.599-5.613,68.413,18.332l0,0c13.877,24.016,5.607,54.605-18.326,68.424
	C197.941,192.057,167.398,183.631,153.655,159.81z"/>
<path style="fill:#7FB335;" d="M124.677,306.087c27.619,0,50.087-22.468,50.087-50.087H74.59
	C74.59,283.619,97.057,306.087,124.677,306.087z"/>
</svg>